<svg xmlns="http://www.w3.org/2000/svg" viewBox="0 0 826.56 919.93"><defs><style>.cls-1,.cls-2{isolation:isolate;}.cls-2,.cls-3{fill:#18a8e1;}</style></defs><g id="Camada_2" data-name="Camada 2"><g id="Camada_1-2" data-name="Camada 1"><g class="cls-1"><path class="cls-2" d="M781.48,270.51v15H736.39V225.43h15V180.34H706.34v45.09h15V315.6H586.11v-15H556.05v-15h75.14V210.4h15V165.31H601.14V210.4h15v60.11H556.05v-30H541v-15H495.94V150.28h60.11V90.17h15v15h45.09V60.11H571.08v15H541v60.12H495.94V105.2h15V60.11H465.88V105.2h15V225.43H420.8V45.09h15V0H390.74V45.09h15V225.43H345.65V105.2h15V60.11H315.6V105.2h15v30.06H285.54V75.14H255.48v-15H210.4V105.2h45.08v-15h15v60.11h60.12v75.15H285.54v15h-15v30H210.4V210.4h15V165.31H180.34V210.4h15v75.14h75.14v15h-30v15H105.2V225.43h15V180.34H75.14v45.09h15v60.11H45.09v-15H0V315.6H45.09v-15H90.17v30.06h45.09v60.11H105.2v-15H60.11V420.8H105.2v-15h45.08V330.63h90.18v15h30v15H195.37v75.14h-15v45.09h45.09V435.82h-15V375.71h60.11v15h15v15h45.09v90.17H270.51v60.11h-15V541H210.4v45.09h45.08v-15h30.06V511h45.09v30h-15v45.09h45.08V541h-15V405.77h60.12V601.14h-15v45.08h45.08V601.14h-15V405.77h60.11V541h-15v45.09H511V541h-15V511H541v60.11h30.06v15h45.09V541H571.08v15h-15V495.94H495.94V405.77H541v-15h15v-15h60.12v60.11h-15v45.09h45.08V435.82h-15V360.68H556.05v-15h30.06v-15h90.17v75.14h45.09v15h45.08V375.71H721.37v15H691.31V330.63h45.08V300.57h45.09v15h45.08V270.51Zm-60.11-75.14h15v15h-15Zm-105.2-15h15v15h-15ZM586.11,75.14h15v15h-15Zm-105.2,0h15v15h-15ZM405.77,15h15v15h-15ZM330.63,75.14h15v15h-15Zm-90.17,15h-15v-15h15Zm-45.09,90.17h15v15h-15Zm-105.2,15h15v15h-15ZM30.06,300.57H15v-15h15Zm60.11,105.2h-15v-15h15ZM210.4,465.88h-15v-15h15Zm30.06,105.2h-15v-15h15Zm105.19,0h-15v-15h15Zm30.06-240.45H330.63V285.54h45.08ZM420.8,631.19h-15v-15h15Zm75.14-60.11h-15v-15h15Zm90.17-15h15v15h-15Zm45.08-90.17h-15v-15h15ZM450.85,285.54h45.09v45.09H450.85Zm285.54,105.2h15v15h-15Zm75.15-90.17h-15v-15h15Z"/><g class="cls-1"><path class="cls-3" d="M200.18,791.58h-41l-8.58,24.63H131.51l40-105.8H188l40,105.8H208.83Zm-35.83-14.83H195l-15.33-43.89Z"/><path class="cls-3" d="M278.88,775.52H258.39v40.69H240V710.41h37.21q18.32,0,28.27,8.22t9.95,23.78q0,10.62-5.12,17.78a32.51,32.51,0,0,1-14.28,11l23.76,44.06v.94H300.1Zm-20.49-14.83h18.89q9.3,0,14.54-4.68t5.23-12.83q0-8.5-4.83-13.15t-14.43-4.8h-19.4Z"/><path class="cls-3" d="M363.25,770.5l-12,12.72v33H332.87V710.41h18.39V760l10.17-12.57,31-37.06h22.24l-39.32,46.87,41.57,58.93h-21.8Z"/><path class="cls-3" d="M485.92,791.58h-41l-8.58,24.63H417.24l40-105.8h16.5l40,105.8H494.56Zm-35.83-14.83h30.66l-15.33-43.89Z"/><path class="cls-3" d="M525.74,816.21V710.41H557a49,49,0,0,1,24.88,6.25,42.56,42.56,0,0,1,16.83,17.73q6,11.48,6,26.3V766q0,15-6,26.45A42.05,42.05,0,0,1,581.58,810a51.32,51.32,0,0,1-25.39,6.17Zm18.38-91v76.3h12q14.46,0,22.2-9t7.89-26v-5.89q0-17.22-7.49-26.31T557,725.23Z"/><path class="cls-3" d="M684.81,769H641.35v32.55h50.8v14.68H623V710.41h68.67v14.82H641.35v29.21h43.46Z"/></g><g class="cls-1"><path class="cls-3" d="M301.39,894.17H288.87V919H277.63V854.38h22.74q11.19,0,17.27,5t6.09,14.54a18.26,18.26,0,0,1-3.13,10.87,20,20,0,0,1-8.73,6.73l14.52,26.93V919h-12Zm-12.52-9.06h11.54q5.68,0,8.88-2.86a10,10,0,0,0,3.2-7.84q0-5.19-2.95-8t-8.82-2.93H288.87Z"/><path class="cls-3" d="M372.18,890.18H345.62v19.89h31.05v9H334.39V854.38h42v9.06H345.62v17.85h26.56Z"/><path class="cls-3" d="M385.81,919V854.38h19.1a30,30,0,0,1,15.21,3.82A26,26,0,0,1,430.4,869,34.35,34.35,0,0,1,434,885.11v3.25a34.29,34.29,0,0,1-3.66,16.16,25.71,25.71,0,0,1-10.44,10.75A31.29,31.29,0,0,1,404.42,919Zm11.24-55.6v46.63h7.33q8.83,0,13.56-5.53t4.82-15.87v-3.6q0-10.53-4.57-16.08t-13.28-5.55Z"/><path class="cls-3" d="M492.53,854.38v43.21q0,10.3-6.59,16.32t-17.57,6q-11.1,0-17.63-5.93t-6.53-16.45V854.38h11.2v43.26q0,6.48,3.28,9.9t9.68,3.42q13,0,13-13.68v-42.9Z"/><path class="cls-3" d="M526.77,877.74l13.59-23.36h13l-19.54,32.07,20,32.59h-13.1l-13.9-23.71L512.83,919H499.77l20-32.59-19.59-32.07h13Z"/></g></g></g></g></svg>