<svg xmlns="http://www.w3.org/2000/svg" viewBox="0 0 301.24 246.33"><defs><style>.cls-1{fill:#639b60;}</style></defs><g id="Camada_2" data-name="Camada 2"><g id="Camada_1-2" data-name="Camada 1"><path class="cls-1" d="M258.69.38H231L196.39,79h-64.2V54.7h56.6V37.61H132.57V17.1h61.31V0L108.26.38V97.63H214.63l7.59-20.13h46.35l7.22,20.13h25.45ZM228.21,60.72,244.9,19.57l16.44,41.15Z"/><path class="cls-1" d="M49.37,100s42.3,1,46.6-31.15C95.72,39.76,96,0,96,0H71.66V60.78s1.77,22.29-22.29,21.53H47.85c-24,.76-22.28-21.53-22.28-21.53V0H1.26s.25,39.76,0,68.89C5.56,101.05,47.85,100,47.85,100Z"/><path class="cls-1" d="M25.48,125v17.32a7.84,7.84,0,0,1-3.12,6.55,13.28,13.28,0,0,1-8.31,2.41q-5.27,0-8.35-2.38a7.84,7.84,0,0,1-3.08-6.6V125H7.91v17.34a5,5,0,0,0,1.56,4,6.74,6.74,0,0,0,4.58,1.37q6.14,0,6.13-5.48V125Z"/><path class="cls-1" d="M55.42,150.94H50.1L36.47,132.55v18.39H31.15V125h5.32l13.68,18.46V125h5.27Z"/><path class="cls-1" d="M67.31,150.94H62V125h5.29Z"/><path class="cls-1" d="M84.63,145.3,92.4,125h5.84l-11,25.92H82.09L71.12,125h5.82Z"/><path class="cls-1" d="M119.57,139.37H107v8h14.68v3.59h-20V125h19.86v3.63H107v7.16h12.56Z"/><path class="cls-1" d="M137.26,141h-5.92v10H126V125h10.76c3.53,0,6.26.67,8.17,2a6.66,6.66,0,0,1,2.88,5.83,6.5,6.5,0,0,1-1.48,4.35,9.37,9.37,0,0,1-4.13,2.7l6.87,10.8v.23H143.4Zm-5.92-3.63h5.46a6.83,6.83,0,0,0,4.2-1.15,3.73,3.73,0,0,0,1.52-3.14,3.94,3.94,0,0,0-1.4-3.23,6.6,6.6,0,0,0-4.17-1.17h-5.61Z"/><path class="cls-1" d="M168.87,144.26a3,3,0,0,0-1.42-2.63,18.69,18.69,0,0,0-5.12-1.87,27.32,27.32,0,0,1-5.88-2.1c-2.79-1.49-4.18-3.42-4.18-5.81a6,6,0,0,1,3-5.16,13.79,13.79,0,0,1,7.83-2,15.12,15.12,0,0,1,5.69,1,9,9,0,0,1,3.93,2.84,6.47,6.47,0,0,1,1.43,4.08h-5.29a3.77,3.77,0,0,0-1.51-3.18,7,7,0,0,0-4.29-1.14,7.35,7.35,0,0,0-4,.94,3,3,0,0,0-1.44,2.64,2.75,2.75,0,0,0,1.56,2.37,19.05,19.05,0,0,0,5.12,1.85,26.14,26.14,0,0,1,5.74,2.05,8.64,8.64,0,0,1,3.17,2.64,6,6,0,0,1,1,3.48,5.86,5.86,0,0,1-2.93,5.15,14.34,14.34,0,0,1-7.95,1.92,17.41,17.41,0,0,1-6.11-1,10.26,10.26,0,0,1-4.32-2.88,6.43,6.43,0,0,1-1.55-4.27h5.32a3.94,3.94,0,0,0,1.72,3.42,8.6,8.6,0,0,0,4.94,1.21,7.39,7.39,0,0,0,4.17-1A2.91,2.91,0,0,0,168.87,144.26Z"/><path class="cls-1" d="M184.46,150.94h-5.3V125h5.3Z"/><path class="cls-1" d="M191,150.94V125h9a16.2,16.2,0,0,1,7.19,1.53,11.43,11.43,0,0,1,4.87,4.34,12.11,12.11,0,0,1,1.72,6.45v1.3a12.07,12.07,0,0,1-1.73,6.48,11.39,11.39,0,0,1-4.94,4.31,17,17,0,0,1-7.34,1.51Zm5.32-22.29v18.7h3.47a7.84,7.84,0,0,0,8.7-8.59v-1.44a8.92,8.92,0,0,0-2.17-6.45,8.38,8.38,0,0,0-6.28-2.22Z"/><path class="cls-1" d="M235.79,144.91H223.94l-2.48,6h-5.53L227.49,125h4.77l11.58,25.92h-5.55Zm-10.36-3.64h8.87l-4.43-10.75Z"/><path class="cls-1" d="M247.31,150.94V125h9a16.25,16.25,0,0,1,7.2,1.53,11.46,11.46,0,0,1,4.86,4.34,12.11,12.11,0,0,1,1.73,6.45v1.3a12,12,0,0,1-1.74,6.48,11.33,11.33,0,0,1-4.94,4.31,17,17,0,0,1-7.34,1.51Zm5.31-22.29v18.7h3.47a7.84,7.84,0,0,0,8.7-8.59v-1.44q0-4.22-2.17-6.45t-6.28-2.22Z"/><path class="cls-1" d="M293.3,139.37H280.74v8h14.68v3.59h-20V125h19.86v3.63H280.74v7.16H293.3Z"/><path class="cls-1" d="M3.1,191.67V165.74h9a16.22,16.22,0,0,1,7.2,1.53,11.39,11.39,0,0,1,4.87,4.35,12.14,12.14,0,0,1,1.72,6.44v1.3a12,12,0,0,1-1.74,6.49,11.36,11.36,0,0,1-4.93,4.31,17.17,17.17,0,0,1-7.35,1.51Zm5.32-22.3v18.7h3.46a8.76,8.76,0,0,0,6.42-2.21,8.72,8.72,0,0,0,2.28-6.37v-1.44q0-4.23-2.16-6.45a8.41,8.41,0,0,0-6.29-2.23Z"/><path class="cls-1" d="M55.63,179.38a13.83,13.83,0,0,1-1.56,6.69,10.57,10.57,0,0,1-4.44,4.42A14,14,0,0,1,43,192a14,14,0,0,1-6.63-1.54,10.88,10.88,0,0,1-4.5-4.39,13.49,13.49,0,0,1-1.6-6.58v-1.46a13.81,13.81,0,0,1,1.58-6.69,10.71,10.71,0,0,1,4.48-4.44,13.81,13.81,0,0,1,6.63-1.54,14,14,0,0,1,6.63,1.52A10.64,10.64,0,0,1,54,171.29a13.66,13.66,0,0,1,1.6,6.65ZM50.31,178c0-2.87-.64-5.08-1.92-6.61a6.71,6.71,0,0,0-5.45-2.29,6.69,6.69,0,0,0-5.39,2.28,9.89,9.89,0,0,0-2,6.48v1.49a10,10,0,0,0,2,6.61A6.76,6.76,0,0,0,43,188.32,6.68,6.68,0,0,0,48.41,186q1.91-2.28,1.9-6.66Z"/><path class="cls-1" d="M89.52,180.09H77v8H91.65v3.6h-20V165.74H91.5v3.63H77v7.16H89.52Z"/><path class="cls-1" d="M112,185a3,3,0,0,0-1.41-2.63,18.83,18.83,0,0,0-5.12-1.87,27.12,27.12,0,0,1-5.88-2.1c-2.79-1.49-4.19-3.42-4.19-5.81a6,6,0,0,1,3-5.16,13.71,13.71,0,0,1,7.83-2,15.36,15.36,0,0,1,5.69,1,9.1,9.1,0,0,1,3.93,2.84,6.53,6.53,0,0,1,1.43,4.09H112a3.79,3.79,0,0,0-1.5-3.18,7,7,0,0,0-4.3-1.15,7.34,7.34,0,0,0-4,1,3,3,0,0,0-1.44,2.63,2.78,2.78,0,0,0,1.56,2.38,19.77,19.77,0,0,0,5.12,1.85,25.82,25.82,0,0,1,5.74,2.05,8.62,8.62,0,0,1,3.17,2.63,6.12,6.12,0,0,1,1,3.49,5.88,5.88,0,0,1-2.93,5.15A14.36,14.36,0,0,1,106.4,192a17.19,17.19,0,0,1-6.11-1.05A10.19,10.19,0,0,1,96,188.11a6.43,6.43,0,0,1-1.54-4.28h5.31a3.92,3.92,0,0,0,1.73,3.42,8.5,8.5,0,0,0,4.94,1.21,7.41,7.41,0,0,0,4.17-1A2.9,2.9,0,0,0,112,185Z"/><path class="cls-1" d="M144.05,169.37h-9.54v22.3h-5.27v-22.3h-9.46v-3.63h24.27Z"/><path class="cls-1" d="M162.67,185.63H150.82l-2.48,6h-5.53l11.56-25.93h4.77l11.57,25.93h-5.54ZM152.31,182h8.87l-4.44-10.76Z"/><path class="cls-1" d="M174.18,191.67V165.74h9a16.2,16.2,0,0,1,7.19,1.53,11.39,11.39,0,0,1,4.87,4.35,12,12,0,0,1,1.72,6.44v1.3a12.13,12.13,0,0,1-1.73,6.49,11.39,11.39,0,0,1-4.94,4.31,17.13,17.13,0,0,1-7.34,1.51Zm5.32-22.3v18.7H183a8.75,8.75,0,0,0,6.41-2.21,8.64,8.64,0,0,0,2.28-6.37v-1.44q0-4.23-2.16-6.45a8.38,8.38,0,0,0-6.28-2.23Z"/><path class="cls-1" d="M226.71,179.38a13.94,13.94,0,0,1-1.55,6.69,10.65,10.65,0,0,1-4.45,4.42,15.08,15.08,0,0,1-13.28,0,10.86,10.86,0,0,1-4.49-4.39,13.39,13.39,0,0,1-1.61-6.58v-1.46a13.7,13.7,0,0,1,1.59-6.69,10.69,10.69,0,0,1,4.47-4.44,15.13,15.13,0,0,1,13.26,0,10.61,10.61,0,0,1,4.47,4.38,13.65,13.65,0,0,1,1.59,6.65ZM221.4,178c0-2.87-.64-5.08-1.93-6.61a7.57,7.57,0,0,0-10.84,0,9.89,9.89,0,0,0-2,6.48v1.49a10,10,0,0,0,2,6.61,6.76,6.76,0,0,0,5.45,2.33A6.69,6.69,0,0,0,219.5,186c1.26-1.52,1.9-3.74,1.9-6.66Z"/><path class="cls-1" d="M242.73,191.67V165.74h9a16.28,16.28,0,0,1,7.2,1.53,11.42,11.42,0,0,1,4.86,4.35,12.05,12.05,0,0,1,1.73,6.44v1.3a12,12,0,0,1-1.74,6.49,11.33,11.33,0,0,1-4.94,4.31,17.1,17.1,0,0,1-7.34,1.51Zm5.31-22.3v18.7h3.47a7.83,7.83,0,0,0,8.7-8.58v-1.44q0-4.23-2.17-6.45a8.37,8.37,0,0,0-6.28-2.23Z"/><path class="cls-1" d="M295.26,179.38a13.83,13.83,0,0,1-1.56,6.69,10.69,10.69,0,0,1-4.44,4.42,15.08,15.08,0,0,1-13.28,0,10.88,10.88,0,0,1-4.5-4.39,13.5,13.5,0,0,1-1.61-6.58v-1.46a13.7,13.7,0,0,1,1.59-6.69,10.71,10.71,0,0,1,4.48-4.44,15.11,15.11,0,0,1,13.25,0,10.61,10.61,0,0,1,4.47,4.38,13.77,13.77,0,0,1,1.6,6.65ZM289.94,178c0-2.87-.64-5.08-1.92-6.61a7.57,7.57,0,0,0-10.84,0,9.89,9.89,0,0,0-2,6.48v1.49a10,10,0,0,0,2,6.61,6.77,6.77,0,0,0,5.46,2.33A6.68,6.68,0,0,0,288,186q1.9-2.28,1.9-6.66Z"/><path class="cls-1" d="M18.51,226.36H7.66l-2.27,6H.33l10.58-25.93h4.37l10.6,25.93H20.8ZM9,222.73h8.11L13.09,212Z"/><path class="cls-1" d="M47.65,206.47l8.07,19.87,8.06-19.87h6.29V232.4H65.22v-8.55l.48-11.43-8.27,20H54l-8.25-20,.48,11.41v8.55H41.34V206.47Z"/><path class="cls-1" d="M104.13,226.36H93.28l-2.27,6H86l10.58-25.93h4.37l10.59,25.93h-5.07Zm-9.48-3.63h8.11L98.7,212Z"/><path class="cls-1" d="M131.53,228.8h15v3.6H125.65v-2.92l14.48-19.38H125.74v-3.63H146v2.85Z"/><path class="cls-1" d="M184.8,220.11a14.91,14.91,0,0,1-1.42,6.69,10.18,10.18,0,0,1-4.07,4.41,12.75,12.75,0,0,1-12.15,0,10.35,10.35,0,0,1-4.12-4.39,14.65,14.65,0,0,1-1.47-6.57v-1.46A14.84,14.84,0,0,1,163,212.1a10.41,10.41,0,0,1,4.1-4.45,12.77,12.77,0,0,1,12.14,0,10.19,10.19,0,0,1,4.08,4.38,14.71,14.71,0,0,1,1.46,6.65Zm-4.86-1.35q0-4.32-1.76-6.61a6.51,6.51,0,0,0-9.92,0,10.44,10.44,0,0,0-1.82,6.47v1.5a10.63,10.63,0,0,0,1.8,6.61,6,6,0,0,0,5,2.33,5.88,5.88,0,0,0,5-2.28q1.74-2.28,1.74-6.66Z"/><path class="cls-1" d="M224.15,232.4h-4.86L206.81,214v18.4h-4.87V206.47h4.87l12.52,18.47V206.47h4.82Z"/><path class="cls-1" d="M258.21,226.36H247.36l-2.26,6H240l10.58-25.93H255l10.6,25.93H260.5Zm-9.48-3.63h8.12L252.79,212Z"/><path class="cls-1" d="M295.67,225.72a3.06,3.06,0,0,0-1.29-2.64,16.59,16.59,0,0,0-4.69-1.87,23.28,23.28,0,0,1-5.38-2.1c-2.55-1.48-3.83-3.42-3.83-5.8a6.19,6.19,0,0,1,2.76-5.17,11.81,11.81,0,0,1,7.16-2,13.06,13.06,0,0,1,5.22,1,8.44,8.44,0,0,1,3.59,2.84,6.92,6.92,0,0,1,1.31,4.09h-4.85a3.9,3.9,0,0,0-1.37-3.18,6,6,0,0,0-3.93-1.15,6.38,6.38,0,0,0-3.71.94,3.08,3.08,0,0,0-1.31,2.64,2.8,2.8,0,0,0,1.42,2.38,17.27,17.27,0,0,0,4.69,1.85,22.35,22.35,0,0,1,5.25,2,8.1,8.1,0,0,1,2.91,2.63,6.5,6.5,0,0,1,.92,3.48,6,6,0,0,1-2.68,5.16,12.3,12.3,0,0,1-7.28,1.91,14.53,14.53,0,0,1-5.59-1,9.26,9.26,0,0,1-4-2.87,6.84,6.84,0,0,1-1.41-4.28h4.86a4.07,4.07,0,0,0,1.58,3.42,7.28,7.28,0,0,0,4.52,1.21,6.42,6.42,0,0,0,3.82-.95A3,3,0,0,0,295.67,225.72Z"/><rect class="cls-1" y="111.85" width="300.87" height="3.8"/><rect class="cls-1" y="243.29" width="300.87" height="3.04"/></g></g></svg>